<?xml version="1.0" standalone="no"?><!DOCTYPE svg PUBLIC "-//W3C//DTD SVG 1.1//EN" "http://www.w3.org/Graphics/SVG/1.1/DTD/svg11.dtd"><svg width="200" height="200" viewBox="0 0 200 200" version="1.1" xmlns="http://www.w3.org/2000/svg" xmlns:xlink="http://www.w3.org/1999/xlink"><defs><style type="text/css"><![CDATA[
@font-face { font-family: ifont; src: url("http://at.alicdn.com/t/font_1442373896_4754455.eot?#iefix") format("embedded-opentype"), url("http://at.alicdn.com/t/font_1442373896_4754455.woff") format("woff"), url("http://at.alicdn.com/t/font_1442373896_4754455.ttf") format("truetype"), url("http://at.alicdn.com/t/font_1442373896_4754455.svg#ifont") format("svg"); }

]]></style></defs><g class="transform-group"><g transform="scale(0.1953125, 0.1953125)"><path d="M330.016 704c0 30.016-12 56-32 78.016-22.016 22.016-48 32-78.016 32-32 0-56-10.016-78.016-32s-32-48-32-78.016c0-30.016 10.016-56 32-78.016s46.016-32 78.016-32c30.016 0 56 10.016 78.016 32 20 22.016 32 48 32 78.016zM622.016 774.016c0 10.016-2.016 20-10.016 28-6.016 8-16 12-26.016 12l-78.016 0c-10.016 0-18.016-4-24-10.016-8-6.016-12-14.016-12-24-8-86.016-44-162.016-106.016-224s-136-96-224-104c-8-2.016-16-6.016-22.016-12-8-6.016-10.016-16-10.016-24l0-78.016c0-10.016 4-20 12-26.016 6.016-8 14.016-10.016 24-10.016l4 0c60 4 118.016 20 174.016 46.016s104 60 148 104c44 42.016 78.016 92 104 148s40 114.016 46.016 174.016zM914.016 776c2.016 10.016-2.016 18.016-10.016 26.016-6.016 8-16 12-26.016 12l-82.016 0c-10.016 0-18.016-4-26.016-10.016-6.016-6.016-10.016-16-10.016-24-6.016-82.016-24-160-58.016-234.016s-78.016-138.016-132-192c-54.016-54.016-118.016-98.016-192-132s-152-54.016-234.016-58.016c-10.016 0-18.016-4-24-12-6.016-6.016-10.016-16-10.016-24l0-82.016c0-10.016 4-20 12-26.016 6.016-8 14.016-10.016 24-10.016l2.016 0c100 4 196 26.016 286.016 68 92 40 172 96 244 168 70.016 70.016 126.016 152 168 242.016 40 92 64 188 68 288z" fill="#272636"></path></g></g></svg>