<?xml version="1.0" encoding="utf-8"?>
<!-- Generator: Adobe Illustrator 17.0.0, SVG Export Plug-In . SVG Version: 6.00 Build 0)  -->
<!DOCTYPE svg PUBLIC "-//W3C//DTD SVG 1.1//EN" "http://www.w3.org/Graphics/SVG/1.1/DTD/svg11.dtd">
<svg version="1.1" id="图层_1" xmlns="http://www.w3.org/2000/svg" xmlns:xlink="http://www.w3.org/1999/xlink" x="0px" y="0px"
	 width="32px" height="32px" viewBox="6.844 0 32 32" enable-background="new 6.844 0 32 32" xml:space="preserve">
<path d="M22.844,0c-8.837,0-16,7.163-16,16s7.163,16,16,16c8.836,0,16-7.163,16-16S31.681,0,22.844,0z M32.387,9.104l-9.533,8.918
	l-9.539-8.918H32.387z M13.164,10.715l5.931,5.544l-5.931,5.544V10.715z M14.067,22.896l6.059-5.732l2.099,1.893l0.629,0.588
	l0.629-0.555l2.097-1.927l6.056,5.733H14.067z M32.524,21.801l-5.925-5.542l5.925-5.542V21.801z"/>
</svg>
