<?xml version="1.0" standalone="no"?><!DOCTYPE svg PUBLIC "-//W3C//DTD SVG 1.1//EN" "http://www.w3.org/Graphics/SVG/1.1/DTD/svg11.dtd"><svg width="200" height="200" viewBox="0 0 200 200" version="1.1" xmlns="http://www.w3.org/2000/svg" xmlns:xlink="http://www.w3.org/1999/xlink"><defs><style type="text/css"><![CDATA[
@font-face { font-family: ifont; src: url("http://at.alicdn.com/t/font_1442373896_4754455.eot?#iefix") format("embedded-opentype"), url("http://at.alicdn.com/t/font_1442373896_4754455.woff") format("woff"), url("http://at.alicdn.com/t/font_1442373896_4754455.ttf") format("truetype"), url("http://at.alicdn.com/t/font_1442373896_4754455.svg#ifont") format("svg"); }

]]></style></defs><g class="transform-group"><g transform="scale(0.1953125, 0.1953125)"><path d="M512.325632 0.452608c-282.71104 0-511.894528 229.182464-511.894528 511.894528s229.182464 511.894528 511.894528 511.894528 511.894528-229.182464 511.894528-511.894528S795.036672 0.452608 512.325632 0.452608zM361.782272 702.85824c-22.45632 0-40.659968-18.205696-40.659968-40.662016 0-22.458368 18.203648-40.662016 40.659968-40.662016s40.662016 18.203648 40.662016 40.662016C402.444288 684.652544 384.238592 702.85824 361.782272 702.85824zM524.39552 703.664128c0-112.4608-91.490304-203.949056-203.879424-203.949056l0-85.871616c160.13312 0 289.80736 129.816576 289.80736 289.821696L524.39552 703.665152zM680.51968 703.664128c0-198.519808-161.425408-360.071168-360.004608-360.071168l0-85.87776c246.319104 0 445.942784 199.743488 445.942784 445.948928L680.51968 703.664128z" fill="#272636"></path></g></g></svg>