<?xml version="1.0" encoding="utf-8"?>
<!-- Generator: Adobe Illustrator 17.0.0, SVG Export Plug-In . SVG Version: 6.00 Build 0)  -->
<!DOCTYPE svg PUBLIC "-//W3C//DTD SVG 1.1//EN" "http://www.w3.org/Graphics/SVG/1.1/DTD/svg11.dtd">
<svg version="1.1" id="图层_1" xmlns="http://www.w3.org/2000/svg" xmlns:xlink="http://www.w3.org/1999/xlink" x="0px" y="0px"
	 width="32px" height="32px" viewBox="0 0 32 32" enable-background="new 0 0 32 32" xml:space="preserve">
<path d="M0,16.839c0,7.172,4.477,13.272,10.718,15.511c0.841,0.22,0.713-0.399,0.713-0.816v-2.847
	c-4.855,0.585-5.047-2.715-5.375-3.264c-0.659-1.156-2.213-1.449-1.75-1.998c1.105-0.585,2.231,0.147,3.536,2.126
	c0.945,1.434,2.784,1.193,3.718,0.952c0.203-0.863,0.642-1.632,1.24-2.232c-5.026-0.919-7.121-4.069-7.121-7.816
	c0-1.815,0.585-3.487,1.729-4.833C6.681,9.398,7.476,7.499,7.583,7.217c2.078-0.194,4.234,1.526,4.402,1.661
	c1.18-0.325,2.527-0.501,4.035-0.501c1.515,0,2.869,0.18,4.056,0.508c0.403-0.315,2.406-1.789,4.338-1.61
	c0.103,0.281,0.88,2.141,0.196,4.332c1.158,1.35,1.75,3.034,1.75,4.856c0,3.754-2.11,6.908-7.15,7.82
	c0.841,0.852,1.362,2.035,1.362,3.345v4.131c0.029,0.33,0,0.659,0.538,0.659c6.334-2.192,10.892-8.335,10.892-15.574
	c0-9.074-7.164-16.426-16-16.426c-8.839-0.004-16,7.348-16,16.422l0,0L0,16.839z"/>
</svg>
