<?xml version="1.0" encoding="utf-8"?>
<!-- Generator: Adobe Illustrator 17.0.0, SVG Export Plug-In . SVG Version: 6.00 Build 0)  -->
<!DOCTYPE svg PUBLIC "-//W3C//DTD SVG 1.1//EN" "http://www.w3.org/Graphics/SVG/1.1/DTD/svg11.dtd">
<svg version="1.1" id="图层_1" xmlns="http://www.w3.org/2000/svg" xmlns:xlink="http://www.w3.org/1999/xlink" x="0px" y="0px"
	 width="32px" height="32px" viewBox="0 0 32 32" enable-background="new 0 0 32 32" xml:space="preserve">
<path d="M16,0C7.164,0,0,7.163,0,16s7.163,16,16,16s16-7.163,16-16S24.837,0,16,0z M10.615,22.783c-0.786,0-1.423-0.637-1.423-1.423
	c0-0.786,0.637-1.423,1.423-1.423c0.786,0,1.423,0.637,1.423,1.423C12.037,22.147,11.401,22.783,10.615,22.783z M16.305,22.812
	c0-3.936-3.201-7.137-7.134-7.137V12.67c5.603,0,10.141,4.542,10.141,10.142H16.305z M21.769,22.812c0-6.947-5.649-12.6-12.598-12.6
	V7.207c8.619,0,15.605,6.99,15.605,15.605H21.769z"/>
</svg>
