<?xml version="1.0" encoding="utf-8"?>
<!-- Generator: Adobe Illustrator 17.0.0, SVG Export Plug-In . SVG Version: 6.00 Build 0)  -->
<!DOCTYPE svg PUBLIC "-//W3C//DTD SVG 1.1//EN" "http://www.w3.org/Graphics/SVG/1.1/DTD/svg11.dtd">
<svg version="1.1" id="图层_1" xmlns="http://www.w3.org/2000/svg" xmlns:xlink="http://www.w3.org/1999/xlink" x="0px" y="0px"
	 width="32px" height="32px" viewBox="84 0 32 32" enable-background="new 84 0 32 32" xml:space="preserve">
<g>
	<g transform="scale(0.1953125, 0.1953125)">
		<path fill="#272636" d="M512.001,163.84c45.243,0,81.92-36.677,81.92-81.92S557.245,0,512.001,0s-81.92,36.677-81.92,81.92
			S466.758,163.84,512.001,163.84z M487.92,60.938c15.751,7.952,29.062,7.493,29.062,7.493s-5.046-17.586,10.551-25.384
			c15.598-7.799,26.331,5.35,26.331,5.35s2.72-0.747,4.747-1.493c2.027-0.747,4.961-2.08,4.961-2.08l-4.806,8.579l7.401-0.785
			c0,0-0.912,1.334-3.874,4.05c-2.962,2.717-4.183,4.12-4.183,4.12s1.058,21.168-10.093,37.465s-25.558,26.078-46.487,28.137
			c-20.929,2.059-34.559-6.423-34.559-6.423s9.153-0.522,14.986-2.753c5.833-2.23,14.221-8.105,14.221-8.105
			s-11.928-3.67-16.209-7.799c-4.282-4.129-5.352-6.575-5.352-6.575l11.775-0.153c0,0-12.386-6.575-15.903-11.775
			c-3.517-5.199-3.976-10.245-3.976-10.245l9.052,3.656c0,0-7.523-10.231-8.594-18.183c-1.07-7.952,1.376-12.233,1.376-12.233
			S472.17,52.987,487.92,60.938z"/>
	</g>
</g>
</svg>
