<?xml version="1.0" standalone="no"?><!DOCTYPE svg PUBLIC "-//W3C//DTD SVG 1.1//EN" "http://www.w3.org/Graphics/SVG/1.1/DTD/svg11.dtd"><svg width="200" height="200" viewBox="0 0 200 200" version="1.1" xmlns="http://www.w3.org/2000/svg" xmlns:xlink="http://www.w3.org/1999/xlink"><defs><style type="text/css"><![CDATA[
@font-face { font-family: ifont; src: url("http://at.alicdn.com/t/font_1442373896_4754455.eot?#iefix") format("embedded-opentype"), url("http://at.alicdn.com/t/font_1442373896_4754455.woff") format("woff"), url("http://at.alicdn.com/t/font_1442373896_4754455.ttf") format("truetype"), url("http://at.alicdn.com/t/font_1442373896_4754455.svg#ifont") format("svg"); }

]]></style></defs><g class="transform-group"><g transform="scale(0.1953125, 0.1953125)"><path d="M512 1024C794.769797 1024 1024 794.769805 1024 512 1024 229.230195 794.769797 0 512 0 229.230203 0 0 229.230195 0 512 0 794.769805 229.230203 1024 512 1024ZM361.494979 380.864645C459.935498 430.562769 543.129088 427.695571 543.129088 427.695571 543.129088 427.695571 511.589888 317.786249 609.074668 269.043866 706.559447 220.301476 773.642998 302.479569 773.642998 302.479569 773.642998 302.479569 790.644756 297.812417 803.312742 293.145266 815.980728 288.478116 834.31596 280.143917 834.31596 280.143917L804.276429 333.762783 850.532741 328.859603C850.532741 328.859603 844.831539 337.195463 826.318991 354.173997 807.806444 371.152529 800.176497 379.923845 800.176497 379.923845 800.176497 379.923845 806.789693 512.221563 737.098117 614.078468 667.406541 715.935369 577.360937 777.067233 446.555238 789.933369 315.749519 802.799505 230.559539 749.792578 230.559539 749.792578 230.559539 749.792578 287.767347 746.527697 324.221399 732.58938 360.675451 718.651066 413.104579 681.935524 413.104579 681.935524 413.104579 681.935524 338.557399 658.997928 311.796859 633.193132 285.036339 607.388336 278.346199 592.096606 278.346199 592.096606L351.937659 591.140872C351.937659 591.140872 274.523259 550.044348 252.541399 517.549421 230.559539 485.054495 227.692339 453.515299 227.692339 453.515299L284.270121 476.362451C284.270121 476.362451 237.249679 412.418773 230.559539 362.720649 223.86942 313.022525 239.161139 286.261996 239.161139 286.261996 239.161139 286.261996 263.054479 331.166521 361.494979 380.864645Z" fill="#272636"></path></g></g></svg>